<svg xmlns="http://www.w3.org/2000/svg" width="64" height="64"><path d="M31.203 63.234c-1.828-1.047-4.297-3.695-5.824-6.261-.711-1.188-1.484-3.032-1.555-3.703l-.054-.528.968-.96c1.082-1.075 2.344-2.716 3.09-4.028.59-1.04 1.399-2.984 1.809-4.375.43-1.441.808-3.746.64-3.91-.191-.192-.343.035-.734 1.093-.738 2.004-2.04 4.31-3.625 6.422-3.223 4.297-5.61 6.16-9.05 7.063-1.31.344-2.583.45-4.555.383-2.735-.094-4.075-.442-4.36-1.125-.234-.563-.394-2.465-.328-3.922.137-3.074.688-5.2 2.055-7.926.316-.629.578-1.203.578-1.277 0-.07-.43-.41-.95-.758-1.84-1.223-4.308-3.555-6.12-5.777-.711-.872-.754-1.094-.352-1.7 1.496-2.234 4.191-4.707 6.676-6.125.465-.265.746-.492.746-.597 0-.098-.192-.555-.418-1.02-1.606-3.246-2.14-5.426-2.145-8.695-.004-1.672.13-2.863.375-3.336.2-.39.559-.52 2.137-.79 1.168-.198 1.574-.218 3.332-.171 1.637.047 2.2.101 3.09.312 2.379.559 4.191 1.559 6.101 3.372.872.828 2.543 2.789 3.442 4.039 1.418 1.976 2.992 4.906 3.488 6.488.13.418.293.781.367.808.22.082.43-.175.38-.468-.993-5.926-2.223-8.59-5.555-12.032-1.196-1.234-1.176-1.18-.856-2.5.484-2.003 1.828-4.406 3.668-6.542 1.18-1.368 3.371-3.247 3.965-3.395.496-.125 1.078.246 2.871 1.828 1.531 1.356 3.453 3.887 4.266 5.613.55 1.176 1.035 2.668 1.105 3.407l.059.601-.914.883c-2.536 2.46-4.102 5.129-5.004 8.527-.348 1.32-.68 3.09-.68 3.657 0 .414.023.457.223.43.258-.04.273-.067.703-1.266 1.05-2.953 3.66-6.989 6.101-9.438 2.305-2.316 4.243-3.41 7.203-4.07.86-.192 1.32-.223 3.258-.227 1.942 0 2.399.032 3.278.223 1.168.254 1.488.45 1.675 1.004.258.773.375 2.906.239 4.43-.235 2.69-.762 4.609-1.922 6.984-.528 1.09-.64 1.398-.543 1.516.066.078.164.144.215.144.18 0 1.773 1.074 2.75 1.852.535.43 1.39 1.191 1.898 1.695 1.113 1.11 2.586 2.918 2.68 3.289.101.398-.14.77-1.492 2.309-1.621 1.843-3.29 3.398-4.805 4.468-.688.493-1.254.961-1.254 1.043s.23.614.512 1.18a21.4 21.4 0 0 1 1.945 6.266c.137.945.133 3.418 0 4.43-.152 1.117-.445 1.687-.96 1.855-.895.293-2.884.535-4.368.535-4.637 0-7.914-1.516-10.957-5.059-2.543-2.957-4.64-6.308-5.617-8.968-.29-.782-.43-1.047-.551-1.028-.258.051-.238.477.086 2.094.86 4.25 2.57 7.559 5.312 10.266.793.785 1.059 1.113 1.059 1.308 0 .824-1.547 3.883-2.844 5.614-1.734 2.324-4.52 4.804-5.383 4.796-.074 0-.328-.113-.57-.25m1.922-5.672a15 15 0 0 0 1.566-1.921c.672-1.02 1.82-3.207 1.82-3.47 0-.073-.324-.57-.726-1.1-1.644-2.192-2.691-4.305-3.469-7.012-.207-.73-.425-1.344-.484-1.364s-.246.508-.422 1.172c-.64 2.426-1.918 5.078-3.37 7.008-.532.703-.759 1.094-.755 1.297 0 .426.88 2.176 1.742 3.469a16 16 0 0 0 1.594 1.976c.754.758.879.844 1.227.844.347 0 .468-.086 1.277-.898M15.848 50.36c1.976-.386 3.968-1.257 5.945-2.597 1.168-.793 2.984-2.594 3.89-3.864.68-.953 1.981-3.457 2.41-4.652l.22-.601-.782-.73c-1.054-.99-1.02-.977-1.465-.56-1.496 1.403-3.77 2.758-5.484 3.27-.863.258-1.418.734-2.074 1.785-.824 1.328-1.285 2.567-1.742 4.711-.13.613-.243.887-.461 1.102-.395.398-.922.398-1.23.007-.204-.253-.22-.367-.173-1.101.098-1.465.875-3.734 1.735-5.05.277-.423.488-.782.472-.794-.02-.015-.71-.058-1.539-.094l-1.504-.07-.324.473c-.578.84-1.316 2.531-1.695 3.894-.317 1.133-.379 1.543-.43 2.739-.062 1.59.016 1.93.528 2.253.28.18.445.196 1.445.149a19 19 0 0 0 2.258-.27m4.863-5.734c-.25-.25-.3-.387-.3-.805 0-.41.05-.547.28-.77.157-.144.403-.296.551-.331.387-.098.969.18 1.16.55.266.512.207.91-.187 1.305-.473.473-1.063.492-1.504.051m3.258-2.473a1.094 1.094 0 0 1 .008-1.746c.437-.343 1.222-.207 1.437.246.211.442.219.594.059.996-.27.668-.985.91-1.504.504m27.597 8.309c.184-.113.383-.324.438-.469.148-.394.117-2.226-.055-3.3-.293-1.797-1.281-4.372-1.992-5.18l-.336-.383H48.2c-.844 0-1.445.043-1.48.101-.035.06.144.446.402.86.79 1.262 1.8 4.281 1.8 5.363 0 .906-.987 1.41-1.589.813-.137-.137-.27-.356-.297-.489-.347-1.726-.605-2.738-.867-3.418-.379-.976-1.148-2.336-1.68-2.968-.34-.403-.492-.489-1.281-.727-1.824-.555-3.555-1.535-5.117-2.906-.461-.403-.875-.73-.926-.727-.047.004-.453.348-.902.766l-.817.762.125.492c.192.746 1.692 3.734 2.407 4.785.863 1.273 2.734 3.137 3.968 3.953 2.73 1.805 5.703 2.813 8.465 2.863.656.012.887-.027 1.156-.191m-10.035-5.836c-.242-.242-.3-.39-.3-.75 0-.535.214-.871.675-1.062.817-.344 1.617.398 1.38 1.277-.227.84-1.165 1.125-1.755.535m-3.078-2.566c-.242-.243-.3-.387-.3-.762 0-.613.308-.98.878-1.059 1.13-.148 1.582 1.438.563 1.965-.457.238-.801.195-1.14-.144m-19.418-3.094c1.906-.262 4.067-1.438 5.926-3.219l.602-.574-.07-.484c-.141-.961-.055-.93-2.579-.965L20.7 33.69l-.246-.285c-.36-.422-.277-1.16.152-1.375.09-.047 1.18-.105 2.418-.133l2.258-.05.145-.543c.14-.528.137-.547-.125-.918-.645-.903-3.028-2.653-4.38-3.207-1.358-.563-1.87-.66-3.483-.66-1.797-.004-2.543.175-4.258 1.011-1.352.66-2.672 1.633-3.828 2.824-.805.829-1.66 1.97-1.66 2.22 0 .269 1.148 1.714 2.144 2.71 3.066 3.043 5.832 4.149 9.2 3.68m-.16-1.844c-1.484-.3-2.824-1.621-3.246-3.207-.633-2.387.797-4.887 3.098-5.402 1.035-.235 1.992.187 1.992.875 0 .574-.344.863-1.16.976-.832.117-1.168.278-1.582.75-.723.82-.825 1.93-.27 2.95.383.703.852 1 1.79 1.14.87.129 1.222.387 1.222.902 0 .813-.762 1.235-1.844 1.016m29.57 1.652c1.051-.27 2.621-1.097 3.68-1.941 1.438-1.145 3.434-3.281 3.781-4.043.106-.227.082-.332-.164-.758-.406-.703-2.816-3.078-3.785-3.722-.98-.657-2.434-1.356-3.34-1.606-1.008-.281-3.453-.254-4.566.05-1.64.446-3.754 1.685-4.992 2.923-.852.851-.926.984-.844 1.496.117.726.11.726 2.465.726 2.312 0 2.574.055 2.797.59.152.371.027.735-.356 1.035-.262.211-.387.22-2.473.22h-2.191l-.105.277c-.059.148-.13.46-.16.69-.051.407-.032.438.648 1.102 1.73 1.688 3.98 2.883 5.945 3.157 1.004.136 2.719.047 3.66-.196m-4.945-1.78a1.2 1.2 0 0 1-.383-.388c-.37-.667.078-1.261 1.043-1.378 1.035-.125 1.594-.516 1.985-1.38a2.505 2.505 0 0 0-.5-2.785c-.465-.48-.965-.703-1.575-.703-.758 0-1.234-.652-.937-1.28.219-.454.574-.618 1.32-.606 1.395.03 2.621.87 3.313 2.27.347.698.386.866.422 1.773.046 1.152-.098 1.738-.665 2.68-.703 1.175-1.757 1.84-3.011 1.902-.528.023-.844-.008-1.012-.106m-10.555.534c1.246-.265 2.559-1.261 3.18-2.414.332-.617.59-1.636.59-2.343s-.258-1.727-.59-2.348c-.562-1.047-1.922-2.11-3.09-2.422-.246-.066-.8-.117-1.23-.117-4.09.008-6.239 4.719-3.688 8.094.988 1.312 2.961 1.945 4.828 1.55m-5.586-9.609c.465-.438.848-.867.848-.953 0-.313-.516-1.66-1.066-2.797-1.094-2.258-2.657-4.309-4.293-5.633-1.575-1.27-3.04-2.094-4.95-2.77-1.378-.488-1.675-.566-2.87-.742-2.06-.296-2.844-.171-3.301.528-.375.57-.094 3.222.546 5.14.364 1.09.778 1.993 1.325 2.864l.457.738 1.46.035c.801.02 1.505-.004 1.56-.047.062-.05.046-.164-.044-.308-.37-.59-.945-1.739-1.234-2.461-.395-.989-.926-2.98-.922-3.461.004-.559.395-.922.996-.922.477 0 .719.36.945 1.398.438 1.996 1.364 4.137 2.41 5.555.438.598.465.617 1.458.941.554.184 1.265.465 1.578.622.937.472 2.363 1.472 3.277 2.3.473.426.883.774.914.77.035 0 .442-.36.906-.797m-3.28-2.742c-.368-.203-.49-.453-.485-.988.004-.477.12-.7.476-.891.582-.309 1.305.023 1.426.656.168.902-.68 1.633-1.418 1.223m-3.177-2.457c-.324-.184-.554-.813-.449-1.23.184-.739 1.18-1.032 1.774-.524.234.203.285.332.285.715 0 .386-.055.527-.313.78-.375.38-.898.481-1.297.259m17.09 5.347c1.563-1.363 3.258-2.363 4.98-2.941 1.16-.39 1.352-.57 2.25-2.086.907-1.539 1.344-2.738 1.758-4.824.075-.38.208-.695.36-.848.472-.472 1.383-.195 1.512.465.066.328-.485 2.672-.848 3.605a26 26 0 0 1-.828 1.711c-.336.633-.57 1.172-.524 1.2.043.03.739.023 1.543-.008l1.457-.063.29-.422c1.242-1.812 2.156-4.785 2.195-7.156.015-.863-.012-1.027-.2-1.281-.37-.504-.593-.563-1.835-.504-1.985.094-3.801.602-6.051 1.7-2.778 1.35-4.797 3.136-6.438 5.695-.82 1.28-2.125 4.09-2.125 4.574 0 .156 1.57 1.836 1.719 1.836.02 0 .375-.293.785-.653m.547-3.03c-.285-.259-.332-.368-.332-.778s.047-.524.332-.778q.626-.562 1.234-.046c.543.457.485 1.336-.113 1.699-.453.277-.73.25-1.12-.098m3.348-2.266c-.121-.047-.32-.215-.446-.375-.187-.235-.218-.383-.18-.75.067-.606.426-.93 1.028-.922.648.004.992.367.992 1.043 0 .414-.215.746-.617.953-.328.172-.46.18-.777.05m-9.633-1.13a20.5 20.5 0 0 1 3.129-6.753c1.304-1.828 1.285-1.754.887-2.809a15.7 15.7 0 0 0-2.676-4.515c-1.215-1.426-1.746-1.606-2.582-.883-.91.785-2.278 2.625-2.953 3.968-.38.75-.88 2.137-.88 2.43 0 .133.227.54.505.899a21.5 21.5 0 0 1 2.09 3.273c.695 1.355.984 2.102 1.515 3.934.527 1.828.496 1.738.602 1.628.047-.05.21-.578.363-1.171m0 0" style="stroke:none;fill-rule:nonzero;fill:#6fa8ff;fill-opacity:1"/></svg>