<?xml version="1.0" encoding="UTF-8" standalone="no"?>
<!-- Created with Inkscape (http://www.inkscape.org/) -->

<svg
   version="1.1"
   id="svg69"
   width="664"
   height="664"
   viewBox="180 180 664 664"
   sodipodi:docname="logo.svg"
   inkscape:version="1.1.2 (0a00cf5339, 2022-02-04)"
   xmlns:inkscape="http://www.inkscape.org/namespaces/inkscape"
   xmlns:sodipodi="http://sodipodi.sourceforge.net/DTD/sodipodi-0.dtd"
   xmlns="http://www.w3.org/2000/svg"
   xmlns:svg="http://www.w3.org/2000/svg">
  <defs
     id="defs73" />
  <sodipodi:namedview
     id="namedview71"
     pagecolor="#ffffff"
     bordercolor="#666666"
     borderopacity="1.0"
     inkscape:pageshadow="2"
     inkscape:pageopacity="0.0"
     inkscape:pagecheckerboard="0"
     showgrid="false"
     inkscape:zoom="0.78808594"
     inkscape:cx="153.53656"
     inkscape:cy="512"
     inkscape:window-width="1866"
     inkscape:window-height="1016"
     inkscape:window-x="54"
     inkscape:window-y="27"
     inkscape:window-maximized="1"
     inkscape:current-layer="g75" />
  <g
     inkscape:groupmode="layer"
     inkscape:label="Image"
     id="g75">
    <g
       id="g177">
      <path
         style="fill:#6fa8ff"
         d="M 504.24768,816.54461 C 486.38934,806.33399 462.33913,780.49151 447.43673,755.5 440.52218,743.90423 432.98509,725.92599 432.28922,719.36859 l -0.54455,-5.1314 9.45583,-9.3686 c 10.55416,-10.45679 22.83062,-26.45852 30.13064,-39.27372 5.75963,-10.11105 13.6111,-29.09765 17.6379,-42.65238 4.17535,-14.05474 7.85781,-36.51564 6.2503,-38.12315 -1.86963,-1.86963 -3.36749,0.36116 -7.17151,10.68066 -7.19518,19.51904 -19.88419,41.99609 -35.34275,62.60539 -31.42425,41.89472 -54.69177,60.04703 -88.24325,68.84354 -12.74829,3.34234 -25.18393,4.38428 -44.43268,3.72287 -26.6292,-0.91501 -39.71709,-4.28735 -42.50145,-10.95127 -2.28832,-5.47672 -3.84004,-24.02776 -3.19699,-38.22053 1.35941,-30.00338 6.73455,-50.7119 20.05896,-77.28 3.08568,-6.15268 5.60957,-11.75668 5.60864,-12.45334 -9.3e-4,-0.69666 -4.16343,-4.02991 -9.25,-7.40722 -17.94244,-11.91316 -42.01573,-34.64043 -59.66767,-56.33144 -6.92121,-8.50491 -7.3634,-10.6466 -3.41618,-16.54587 14.59112,-21.80701 40.84529,-45.90563 65.08554,-59.7418 4.50867,-2.57352 7.25,-4.77742 7.25,-5.82866 0,-0.92972 -1.83458,-5.40555 -4.07684,-9.94628 -15.62428,-31.64018 -20.86669,-52.89937 -20.90484,-84.77384 -0.0195,-16.30959 1.28553,-27.91034 3.65845,-32.52033 1.94894,-3.7863 5.44667,-5.07821 20.82323,-7.69118 11.42356,-1.94122 15.36466,-2.14353 32.5,-1.66833 15.95364,0.44243 21.43527,0.99486 30.14128,3.0376 23.16677,5.43575 40.83887,15.20562 59.47749,32.88164 8.48723,8.0489 24.80172,27.19722 33.54944,39.377 13.8448,19.27663 29.18167,47.81208 34.0021,63.26362 1.26485,4.05436 2.87469,7.5922 3.57744,7.86187 2.15006,0.82506 4.20281,-1.69649 3.72089,-4.57066 -9.6881,-57.78062 -21.67998,-83.74995 -54.16684,-117.30252 -11.64931,-12.03145 -11.46368,-11.49029 -8.35612,-24.36026 4.72023,-19.54889 17.85615,-42.95976 35.79135,-63.78743 11.4757,-13.32643 32.85806,-31.64118 38.63312,-33.09062 4.85065,-1.21744 10.53464,2.40015 27.99407,17.81691 14.93639,13.1889 33.69268,37.86993 41.59622,54.73564 5.35855,11.43485 10.08403,25.98887 10.77479,33.18531 l 0.56246,5.85981 -8.90378,8.64019 C 555.68979,356.83259 540.42762,382.84893 531.62072,416 528.20797,428.84631 525,446.10561 525,451.62032 c 0,4.055 0.22045,4.48598 2.14787,4.19923 2.53221,-0.37673 2.68657,-0.65446 6.84732,-12.31955 10.2747,-28.80624 35.71397,-68.15693 59.50481,-92.04492 22.48076,-22.57255 41.36412,-33.23818 70.23395,-39.66928 8.38156,-1.86709 12.8849,-2.17847 31.76605,-2.19643 18.94118,-0.018 23.38521,0.2821 31.96285,2.15852 11.37451,2.48825 14.50915,4.36535 16.31843,9.77187 2.52682,7.55074 3.65806,28.35516 2.35008,43.22007 -2.30764,26.2257 -7.45664,44.93716 -18.73842,68.09538 -5.16344,10.59906 -6.25547,13.6255 -5.32222,14.75 0.64579,0.77814 1.59397,1.41479 2.10706,1.41479 1.74517,0 17.28964,10.47201 26.82222,18.06962 5.225,4.1644 13.55,11.60166 18.5,16.52724 10.85289,10.79935 25.21693,28.42713 26.13075,32.06807 0.97179,3.87192 -1.36112,7.47724 -14.56931,22.51568 -15.77832,17.96471 -32.04704,33.10818 -46.81144,43.57367 -6.7375,4.77577 -12.25,9.33733 -12.25,10.13681 0,0.79949 2.24227,5.98855 4.98281,11.53126 9.35957,18.92955 15.95102,40.15406 18.96818,61.07765 1.32708,9.20314 1.32392,33.3163 -0.006,43.17764 -1.47207,10.9181 -4.33797,16.46081 -9.35881,18.10011 -8.71633,2.84586 -28.11466,5.22185 -42.58652,5.21616 -45.19598,-0.0178 -77.1589,-14.77118 -106.83258,-49.31169 -24.7871,-28.85248 -45.24505,-61.52508 -54.76883,-87.46918 -2.78819,-7.5954 -4.18471,-10.20964 -5.33741,-9.99145 -2.52118,0.47723 -2.35134,4.63223 0.83405,20.40415 8.36957,41.44058 25.05473,73.69748 51.76884,100.0831 7.73884,7.64368 10.33593,10.84903 10.33593,12.75668 0,8.03825 -15.08769,37.85068 -27.70755,54.74857 -16.90989,22.6422 -44.08993,46.85297 -52.51033,46.77386 -0.70517,-0.007 -3.19567,-1.10612 -5.53444,-2.44334 z M 522.95887,761.25 c 4.8151,-4.84913 11.6315,-13.20814 15.28978,-18.75 C 544.80663,732.56544 556,711.24197 556,708.6835 c 0,-0.73527 -3.18829,-5.57736 -7.08508,-10.76018 -16.05989,-21.36002 -26.24045,-41.94145 -33.81297,-68.35762 -2.03927,-7.11387 -4.16907,-13.08807 -4.73287,-13.27601 -0.56381,-0.18793 -2.4246,4.9575 -4.13508,11.43431 -6.23883,23.62344 -18.68416,49.49537 -32.86409,68.31939 -5.16299,6.85393 -7.36561,10.63302 -7.35553,12.62012 0.0211,4.16215 8.59853,21.22349 17.011,33.83649 4.03516,6.05 11.02233,14.7125 15.52706,19.25 7.36764,7.42124 8.5685,8.25 11.95412,8.25 3.40287,0 4.59673,-0.83891 12.45231,-8.75 z M 354.5,690.986 c 19.28893,-3.76651 38.69537,-12.23927 58,-25.32253 11.36781,-7.70427 29.07487,-25.29415 37.91436,-37.66347 6.63814,-9.28891 19.29465,-33.69908 23.51446,-45.3515 l 2.11906,-5.8515 -7.63003,-7.1485 c -10.26796,-9.61995 -9.94005,-9.49504 -14.26762,-5.43485 -14.58129,13.68037 -36.76804,26.90752 -53.48407,31.88577 -8.42021,2.50765 -13.81085,7.15182 -20.2,17.40278 -8.05941,12.9308 -12.53415,25.02663 -16.99304,45.93446 -1.27683,5.9871 -2.38367,8.62773 -4.50594,10.75 -3.85997,3.85997 -8.96915,3.88693 -12.00664,0.0633 -1.95809,-2.46484 -2.12995,-3.57955 -1.65738,-10.75 0.94133,-14.28292 8.54182,-36.41038 16.90909,-49.22776 2.69224,-4.12409 4.75835,-7.61094 4.59136,-7.74856 -0.16698,-0.13762 -6.91014,-0.55033 -14.9848,-0.91714 l -14.68118,-0.66692 -3.16055,4.59369 c -5.64496,8.20467 -12.81625,24.68508 -16.52335,37.97249 -3.07836,11.03379 -3.70867,15.06242 -4.1779,26.703 -0.62559,15.51954 0.14374,18.8072 5.14448,21.98443 2.72537,1.73157 4.34524,1.89824 14.07969,1.4487 6.05,-0.27939 15.95,-1.47456 22,-2.65593 z m 47.42308,-55.90908 C 399.48936,632.6432 399,631.33523 399,627.26401 c 0,-4.03357 0.48155,-5.34788 2.75,-7.5056 1.5125,-1.43867 3.92359,-2.9056 5.35797,-3.25985 3.75904,-0.92836 9.4675,1.7798 11.32561,5.373 2.57836,4.986 2.01785,8.87701 -1.83358,12.72844 -4.61216,4.61216 -10.35508,4.79877 -14.67692,0.47692 z m 31.78417,-24.09256 c -5.64108,-4.43727 -5.61104,-12.55508 0.063,-17.01825 4.25692,-3.3485 11.91629,-2.04129 14.02924,2.39435 2.04515,4.29332 2.13011,5.77508 0.5566,9.70767 -2.615,6.53553 -9.60703,8.8821 -14.64881,4.91623 z m 269.06768,81.01144 c 1.8012,-1.09819 3.7137,-3.15081 4.25,-4.56136 1.46268,-3.84716 1.16668,-21.70344 -0.53358,-32.18692 -2.84105,-17.51749 -12.49072,-42.62146 -19.41425,-50.50693 L 683.79282,601 h -13.8374 c -8.23472,0 -14.09005,0.40881 -14.46141,1.00969 -0.34321,0.55532 1.43585,4.3146 3.95346,8.35394 C 667.12694,622.68483 677,652.11569 677,662.6864 c 0,8.82115 -9.66104,13.74347 -15.50479,7.89972 -1.32763,-1.32763 -2.62629,-3.46513 -2.8859,-4.75 -3.40155,-16.8349 -5.91055,-26.7084 -8.47121,-33.33612 -3.68239,-9.53109 -11.18506,-22.78095 -16.38701,-28.93979 -3.30475,-3.91266 -4.7857,-4.75255 -12.5,-7.08916 -17.78161,-5.38594 -34.64319,-14.96305 -49.88632,-28.33465 -4.47438,-3.92502 -8.52438,-7.11449 -9,-7.0877 -0.47563,0.0268 -4.44783,3.39345 -8.82713,7.48149 l -7.96235,7.43279 1.2199,4.76851 c 1.86367,7.28502 16.51767,36.41582 23.46967,46.65555 8.43611,12.42571 26.68556,30.60607 38.69713,38.55064 26.62848,17.61233 55.62591,27.41729 82.53801,27.90875 6.41174,0.11709 8.65018,-0.25032 11.27493,-1.85063 z M 604.92308,635.07692 C 602.58736,632.74121 602,631.27887 602,627.79943 c 0,-5.21989 2.08843,-8.5206 6.57806,-10.39649 7.97914,-3.3339 15.76576,3.89277 13.45217,12.48479 -2.20048,8.17195 -11.34926,10.94709 -17.10715,5.18919 z m -30,-25 C 572.55435,607.7082 572,606.29642 572,602.63269 c 0,-5.96775 2.97517,-9.55142 8.55042,-10.29921 10.99949,-1.47535 15.43127,14.00479 5.48231,19.14959 -4.4638,2.30832 -7.81997,1.88353 -11.10965,-1.40615 z M 385.58164,579.92536 c 18.59546,-2.58639 39.66479,-14.03262 57.77623,-31.3878 l 5.85786,-5.61327 -0.68579,-4.71214 c -1.36488,-9.37826 -0.5141,-9.05947 -25.10524,-9.40693 L 401.82316,528.5 l -2.41158,-2.80576 c -3.50891,-4.08246 -2.7137,-11.30513 1.47387,-13.38683 0.888,-0.44144 11.5112,-1.02869 23.6071,-1.30501 l 21.99255,-0.5024 1.40623,-5.26537 c 1.3733,-5.14208 1.34474,-5.35178 -1.21947,-8.95568 -6.27631,-8.8211 -29.5138,-25.853 -42.68011,-31.28235 -13.27367,-5.47362 -18.23603,-6.4127 -33.99175,-6.43258 -17.49244,-0.0221 -24.77203,1.71082 -41.5,9.879 -13.18677,6.43903 -26.03336,15.91054 -37.31184,27.50919 C 283.33286,504.0305 275,515.1659 275,517.58483 c 0,2.63253 11.1756,16.75212 20.91645,26.42646 29.88359,29.67956 56.8457,40.47884 89.66519,35.91407 z m -1.53634,-17.98755 c -14.49467,-2.93951 -27.53455,-15.8301 -31.65037,-31.288 -6.19453,-23.26495 7.77286,-47.64506 30.1717,-52.66474 10.12229,-2.26846 19.43337,1.82716 19.43337,8.54806 0,5.59117 -3.33069,8.39445 -11.30756,9.51702 -8.11207,1.1416 -11.37426,2.6845 -15.42114,7.29364 -7.04599,8.02494 -8.02541,18.82534 -2.60953,28.7761 3.71916,6.83332 8.28406,9.73894 17.43406,11.097 8.48912,1.25996 11.90417,3.78547 11.90417,8.8034 0,7.94188 -7.43793,12.05032 -17.9547,9.91752 z m 288.29724,16.11003 c 10.25557,-2.63283 25.54801,-10.70587 35.88682,-18.94505 13.99777,-11.15505 33.48388,-31.9898 36.87022,-39.422 1.00325,-2.2019 0.78051,-3.22025 -1.61162,-7.36792 -3.96789,-6.87987 -27.47058,-30.00314 -36.90183,-36.30609 -9.55624,-6.38649 -23.73756,-13.20396 -32.58613,-15.66532 -9.80772,-2.72817 -33.64934,-2.46177 -44.5,0.49723 -15.98955,4.36039 -36.61402,16.43533 -48.67812,28.49943 -8.29543,8.29543 -9.01843,9.58052 -8.2154,14.6024 1.13279,7.08408 1.04912,7.05948 24.01461,7.05948 22.53556,0 25.11998,0.54647 27.28321,5.76897 1.48915,3.59511 0.2639,7.16696 -3.46448,10.09971 C 617.86644,528.8929 616.65541,529 596.34039,529 H 574.9505 l -1.01912,2.68048 c -0.56051,1.47427 -1.25885,4.51177 -1.55185,6.75 -0.51731,3.95171 -0.3351,4.26239 6.29387,10.73174 16.8833,16.47675 38.81763,28.11789 57.98712,30.77531 9.77143,1.3546 26.49444,0.46896 35.68202,-1.88969 z m -48.23247,-17.37936 c -1.31446,-0.76374 -2.98601,-2.46409 -3.71456,-3.77855 -3.60783,-6.50929 0.76736,-12.27694 10.18435,-13.42566 10.05868,-1.227 15.50877,-5.02205 19.33611,-13.46427 4.13704,-9.12536 2.20725,-19.82169 -4.89709,-27.14325 -4.5294,-4.66789 -9.38458,-6.83935 -15.31854,-6.85117 -7.39735,-0.0147 -12.04841,-6.36247 -9.14497,-12.48101 2.10896,-4.4443 5.6052,-6.04853 12.85667,-5.89919 13.605,0.28019 25.55462,8.45813 32.29897,22.10439 3.3799,6.83877 3.76613,8.46098 4.12161,17.31152 0.45024,11.20978 -0.96389,16.92034 -6.46224,26.09579 -6.8742,11.47142 -17.1456,17.96054 -29.37038,18.5552 -5.16518,0.25125 -8.24401,-0.0675 -9.88993,-1.0238 z m -102.90929,5.20626 c 12.18067,-2.5865 24.96046,-12.26786 31.02272,-23.50132 3.2483,-6.01916 5.74694,-15.964 5.74694,-22.87342 0,-6.90368 -2.49658,-16.84732 -5.74694,-22.88955 -5.4793,-10.18567 -18.73155,-20.56704 -30.12355,-23.59776 -2.42002,-0.64382 -7.82002,-1.16439 -12,-1.15682 -39.87792,0.0722 -60.82025,46.01856 -35.97462,78.92635 9.65568,12.78886 28.8875,18.95463 47.07545,15.09252 z M 466.75,472.20166 c 4.5375,-4.27405 8.25,-8.46408 8.25,-9.31118 0,-3.02546 -5.00701,-16.18239 -10.37742,-27.26875 -10.65271,-21.99087 -25.90316,-41.99405 -41.84491,-54.88571 -15.3487,-12.41208 -29.65773,-20.42317 -48.27767,-27.02885 -13.44142,-4.76854 -16.34033,-5.51541 -28,-7.21385 -20.03704,-2.91876 -27.69842,-1.6987 -32.16795,5.12266 -3.65294,5.57509 -0.905,31.44259 5.32421,50.11916 3.54748,10.63613 7.60545,19.41246 12.91411,27.92985 l 4.47802,7.18469 14.2258,0.34049 c 7.8242,0.18727 14.66454,-0.0151 15.20077,-0.4498 0.61745,-0.5005 0.46321,-1.60619 -0.42065,-3.01533 -3.60314,-5.74454 -9.22612,-16.95372 -12.03358,-23.98844 -3.84859,-9.64352 -9.01658,-29.05339 -8.98255,-33.7366 0.0397,-5.46877 3.85415,-9 9.72176,-9 4.62701,0 7.00537,3.51833 9.21156,13.62672 4.25466,19.49415 13.29317,40.36237 23.46874,54.18491 4.29209,5.83039 4.55892,6.00274 14.21697,9.18339 5.41354,1.78281 12.34956,4.50399 15.41338,6.04706 9.11782,4.59211 23.02454,14.34846 31.9386,22.40672 4.59422,4.15316 8.60911,7.54505 8.92197,7.53753 0.31286,-0.008 4.28134,-3.51061 8.81884,-7.78467 z m -31.97486,-26.72004 c -3.5913,-2.0022 -4.78193,-4.42845 -4.74334,-9.66588 0.0342,-4.64193 1.20271,-6.81505 4.65246,-8.6524 5.69306,-3.03214 12.73213,0.20881 13.89297,6.39666 1.64497,8.76843 -6.63294,15.91851 -13.80209,11.92162 z m -30.98887,-23.98517 c -3.15235,-1.76837 -5.39837,-7.92153 -4.37697,-11.99109 1.8048,-7.19088 11.51815,-10.05233 17.28494,-5.09194 2.31254,1.98916 2.80576,3.2163 2.80576,6.98077 0,3.758 -0.54039,5.10774 -3.04958,7.61693 -3.66084,3.66084 -8.77834,4.66515 -12.66415,2.48533 z m 166.6499,52.15606 c 15.23407,-13.28636 31.74988,-23.04318 48.56383,-28.6894 11.28696,-3.79023 13.17921,-5.54708 21.91632,-20.34816 8.84706,-14.98734 13.10046,-26.66336 17.12718,-47.0159 0.73301,-3.70491 2.0417,-6.77516 3.51654,-8.25 4.6162,-4.6162 13.47756,-1.91106 14.761,4.50615 0.64426,3.22128 -4.75054,26.06188 -8.30096,35.1448 -1.18244,3.025 -4.81133,10.54173 -8.06419,16.70384 -3.25286,6.16211 -5.55122,11.42822 -5.10748,11.70247 0.44375,0.27425 7.21113,0.22474 15.03863,-0.11003 l 14.23181,-0.60867 2.80964,-4.09381 c 12.12286,-17.66367 21.01422,-46.64146 21.40714,-69.76793 0.14293,-8.41213 -0.10911,-10.04277 -1.93203,-12.5 -3.63736,-4.90303 -5.80558,-5.4996 -17.9036,-4.92603 -19.35939,0.91784 -37.05305,5.88608 -59,16.56675 C 602.41948,375.14554 582.71795,392.5781 566.73852,417.5 558.73167,429.98768 546,457.37774 546,462.11548 546,463.62819 561.33539,480 562.75234,480 c 0.2232,0 3.68092,-2.85637 7.68383,-6.34749 z m 5.32961,-29.57048 C 572.96196,441.57682 572.5,440.5043 572.5,436.5 c 0,-4.0043 0.46196,-5.07682 3.26578,-7.58203 4.07061,-3.63709 8.05734,-3.77913 12.03882,-0.42893 5.29275,4.45355 4.71659,13.00288 -1.11597,16.55924 -4.40111,2.68354 -7.1058,2.44428 -10.92285,-0.96625 z m 32.62234,-22.0621 c -1.16154,-0.46931 -3.11792,-2.12829 -4.34753,-3.68661 -1.79947,-2.28055 -2.13826,-3.70481 -1.73649,-7.30032 0.6608,-5.91371 4.14084,-9.04564 10.00166,-9.0012 6.32963,0.048 9.69424,3.58118 9.69424,10.17995 0,4.02147 -2.10302,7.27304 -6.01104,9.29396 -3.22679,1.66864 -4.52614,1.75654 -7.60084,0.51422 z M 514.47735,411 c 6.00508,-23.51307 16.63968,-46.47699 30.48925,-65.83722 12.75242,-17.82653 12.53322,-17.13413 8.67133,-27.38995 -5.84557,-15.52381 -15.11498,-31.16676 -26.09046,-44.02996 -11.85365,-13.8924 -17.04656,-15.66761 -25.19686,-8.61358 -8.85791,7.66647 -22.19208,25.59107 -28.77485,38.6809 C 469.8828,311.15364 465,324.64676 465,327.50845 c 0,1.3046 2.20848,5.25342 4.90774,8.77515 8.24683,10.75966 14.59795,20.71097 20.36735,31.91279 6.80291,13.20846 9.60641,20.47919 14.78222,38.33698 5.16325,17.81443 4.85042,16.96841 5.87333,15.88385 0.47579,-0.50447 2.07181,-5.64222 3.54671,-11.41722 z"
         id="path187" />
    </g>
  </g>
</svg>
